<?xml version="1.0" encoding="UTF-8" standalone="no"?>
<!-- Created with Inkscape (http://www.inkscape.org/) -->

<svg
   xmlns:dc="http://purl.org/dc/elements/1.1/"
   xmlns:cc="http://creativecommons.org/ns#"
   xmlns:rdf="http://www.w3.org/1999/02/22-rdf-syntax-ns#"
   xmlns:svg="http://www.w3.org/2000/svg"
   xmlns="http://www.w3.org/2000/svg"
   xmlns:sodipodi="http://sodipodi.sourceforge.net/DTD/sodipodi-0.dtd"
   xmlns:inkscape="http://www.inkscape.org/namespaces/inkscape"
   width="123.04428mm"
   height="123.04429mm"
   viewBox="0 0 123.04428 123.04429"
   version="1.1"
   id="svg5238"
   inkscape:version="0.92.4 (f8dce91, 2019-08-02)"
   sodipodi:docname="marca.svg"
   inkscape:export-filename="/home/julio/Escritorio/trabajo/sitio_sanja/marca.png"
   inkscape:export-xdpi="96"
   inkscape:export-ydpi="96">
  <defs
     id="defs5232" />
  <sodipodi:namedview
     id="base"
     pagecolor="#ffffff"
     bordercolor="#666666"
     borderopacity="1.0"
     inkscape:pageopacity="0.0"
     inkscape:pageshadow="2"
     inkscape:zoom="0.35"
     inkscape:cx="-1087.4754"
     inkscape:cy="89.667495"
     inkscape:document-units="mm"
     inkscape:current-layer="layer1"
     showgrid="false"
     inkscape:window-width="1853"
     inkscape:window-height="1025"
     inkscape:window-x="67"
     inkscape:window-y="27"
     inkscape:window-maximized="1" />
  <metadata
     id="metadata5235">
    <rdf:RDF>
      <cc:Work
         rdf:about="">
        <dc:format>image/svg+xml</dc:format>
        <dc:type
           rdf:resource="http://purl.org/dc/dcmitype/StillImage" />
        <dc:title></dc:title>
      </cc:Work>
    </rdf:RDF>
  </metadata>
  <g
     inkscape:label="Capa 1"
     inkscape:groupmode="layer"
     id="layer1"
     transform="translate(-36.75167,-49.513568)">
    <rect
       style="opacity:0.98000004;fill:#008000;fill-opacity:0.16363639;stroke:#008000;stroke-width:2.75418973;stroke-linecap:round;stroke-linejoin:round;stroke-miterlimit:4;stroke-dasharray:none"
       id="rect4630"
       width="120.29009"
       height="120.2901"
       x="38.128765"
       y="50.890663" />
    <path
       sodipodi:nodetypes="ssssccssscscccccscscas"
       d="m 122.47557,121.82391 c -1.01591,3.48796 -0.92516,6.73384 -10.69131,13.67355 0,0 2.07985,-4.2215 2.392,-7.6754 0.28726,-3.17851 0.37036,-5.21219 -0.8231,-7.83629 -2.11138,-4.64238 -7.15692,-8.07589 -13.968031,-12.39871 -5.229956,-3.29707 -8.969983,-6.64908 -11.22008,-10.056034 -2.250096,-3.406977 -3.375146,-7.363459 -3.375146,-11.869455 0,-5.861438 1.641963,-10.532286 4.925888,-14.012523 3.283927,-3.480235 7.039156,-5.220352 11.265689,-5.220352 3.22312,0 6.52224,0.824265 9.89739,2.472798 1.8244,0.879217 3.19271,1.318825 4.10491,1.318825 1.61155,0 2.59977,-1.263875 2.96465,-3.791623 h 1.96124 l 2.09806,23.958671 h -2.37172 c -1.24668,-5.641644 -3.1471,-10.037735 -5.70126,-13.188259 -3.31434,-4.103017 -7.09997,-6.154522 -11.35691,-6.154522 -2.91905,0 -5.27557,0.970803 -7.069567,2.912408 -1.763589,1.904973 -2.645385,4.414405 -2.645385,7.528299 0,5.714916 4.576209,11.558051 13.728632,17.529412 6.14216,4.066365 10.28292,6.775995 13.31815,11.869415 1.92136,3.22425 3.61359,7.34274 2.5659,10.93979 z"
       style="font-style:normal;font-variant:normal;font-weight:normal;font-stretch:normal;font-size:75.88602448px;line-height:1.25;font-family:Sahadeva;-inkscape-font-specification:'Sahadeva, Normal';font-variant-ligatures:normal;font-variant-caps:normal;font-variant-numeric:normal;font-feature-settings:normal;text-align:start;letter-spacing:0px;word-spacing:0px;writing-mode:lr-tb;text-anchor:start;fill:#ff6600;fill-opacity:1;stroke:none;stroke-width:2.5632298"
       id="path4624"
       inkscape:connector-curvature="0" />
    <path
       inkscape:connector-curvature="0"
       id="path4626"
       style="font-style:normal;font-variant:normal;font-weight:normal;font-stretch:normal;font-size:75.88602448px;line-height:1.25;font-family:Sahadeva;-inkscape-font-specification:'Sahadeva, Normal';font-variant-ligatures:normal;font-variant-caps:normal;font-variant-numeric:normal;font-feature-settings:normal;text-align:start;letter-spacing:0px;word-spacing:0px;writing-mode:lr-tb;text-anchor:start;fill:#008000;fill-opacity:1;stroke:none;stroke-width:2.5632298"
       d="m 74.060059,100.25884 c 0.997891,-3.492239 0.890374,-6.737699 10.620575,-13.718834 0,0 -2.058025,4.23029 -2.352332,7.685486 -0.270839,3.17969 -0.343437,5.213706 0.86356,7.832708 2.135335,4.63336 7.198561,8.04538 14.031922,12.33922 5.246926,3.27482 9.004226,6.61089 11.271896,10.00825 2.26767,3.39738 3.41314,7.34903 3.43641,11.85497 0.0303,5.86138 -1.58754,10.53916 -4.85345,14.0333 -3.26592,3.49417 -7.01212,5.25022 -11.238608,5.26817 -3.223077,0.0136 -6.526426,-0.79653 -9.910051,-2.43071 -1.828925,-0.87146 -3.199483,-1.30525 -4.111672,-1.30136 -1.61154,0.007 -2.593221,1.27489 -2.945041,3.80417 l -1.961211,0.009 -2.221791,-23.94949 2.3717,-0.0102 c 1.275801,5.63629 3.198906,10.02425 5.769315,13.16389 3.335489,4.08888 7.131682,6.12428 11.388575,6.10619 2.919014,-0.0119 5.270494,-0.99321 7.054444,-2.94241 1.75373,-1.91245 2.62255,-4.4256 2.60647,-7.53947 -0.0295,-5.71484 -4.635857,-11.53847 -13.819025,-17.47086 -6.163092,-4.04022 -10.317807,-6.73224 -13.379304,-11.8127 -1.937999,-3.21605 -3.651479,-7.32731 -2.622382,-10.92878 z"
       sodipodi:nodetypes="ssssccssscscccccscscas" />
  </g>
</svg>
