<?xml version="1.0" encoding="UTF-8" standalone="no"?>
<!-- Created with Inkscape (http://www.inkscape.org/) -->

<svg
   xmlns:dc="http://purl.org/dc/elements/1.1/"
   xmlns:cc="http://creativecommons.org/ns#"
   xmlns:rdf="http://www.w3.org/1999/02/22-rdf-syntax-ns#"
   xmlns:svg="http://www.w3.org/2000/svg"
   xmlns="http://www.w3.org/2000/svg"
   xmlns:sodipodi="http://sodipodi.sourceforge.net/DTD/sodipodi-0.dtd"
   xmlns:inkscape="http://www.inkscape.org/namespaces/inkscape"
   version="1.1"
   id="svg815"
   width="453.60193"
   height="452.46576"
   viewBox="0 0 453.60193 452.46576"
   sodipodi:docname="marca_san_javier_b.svg"
   inkscape:version="0.92.4 (f8dce91, 2019-08-02)">
  <metadata
     id="metadata821">
    <rdf:RDF>
      <cc:Work
         rdf:about="">
        <dc:format>image/svg+xml</dc:format>
        <dc:type
           rdf:resource="http://purl.org/dc/dcmitype/StillImage" />
        <dc:title></dc:title>
      </cc:Work>
    </rdf:RDF>
  </metadata>
  <defs
     id="defs819" />
  <sodipodi:namedview
     pagecolor="#ffffff"
     bordercolor="#666666"
     borderopacity="1"
     objecttolerance="10"
     gridtolerance="10"
     guidetolerance="10"
     inkscape:pageopacity="0"
     inkscape:pageshadow="2"
     inkscape:window-width="1853"
     inkscape:window-height="1025"
     id="namedview817"
     showgrid="false"
     inkscape:zoom="0.5"
     inkscape:cx="178.87097"
     inkscape:cy="12.629205"
     inkscape:window-x="67"
     inkscape:window-y="27"
     inkscape:window-maximized="1"
     inkscape:current-layer="svg815"
     showguides="true"
     inkscape:guide-bbox="true" />
  <ellipse
     style="fill:#ffffff;fill-opacity:1;stroke:#ffffff;stroke-width:0.24397871;stroke-linecap:round;stroke-linejoin:round;stroke-miterlimit:4;stroke-dasharray:none;stroke-opacity:1"
     id="path909"
     cx="226.88541"
     cy="226.21985"
     rx="226.55156"
     ry="225.95578" />
  <g
     id="g877"
     transform="matrix(1.7009322,0,0,1.7009322,713.00849,-122.66159)"
     inkscape:export-xdpi="96"
     inkscape:export-ydpi="96">
    <g
       transform="translate(-279.82229,-0.011291)"
       id="g860">
      <path
         inkscape:connector-curvature="0"
         style="fill:#8b5f3c;fill-opacity:1;stroke:#ff6600;stroke-width:0.23703067;stroke-linecap:round;stroke-linejoin:round;stroke-miterlimit:4;stroke-dasharray:none"
         d="m 108.02344,136.71875 c -4.63111,1.25564 -8.709599,2.08183 -12.468752,3.37305 -1.889024,0.64885 -3.699869,1.41611 -5.462891,2.41406 -1.763022,0.99795 -3.477714,2.22623 -5.177735,3.80078 -1.296264,1.17682 -2.486172,2.40409 -3.564453,3.68555 -1.07828,1.28145 -2.044971,2.61838 -2.896484,4.01367 -0.851513,1.39529 -1.589117,2.84887 -2.205078,4.36719 -0.615962,1.51832 -1.110796,3.1014 -1.482422,4.75195 -0.371626,1.65055 -0.619774,3.36817 -0.738281,5.16016 -0.118507,1.79198 -0.10824,3.65699 0.03516,5.59961 0.143396,1.94261 0.419901,3.96396 0.833984,6.0664 0.414084,2.10244 0.966603,4.28713 1.660157,6.5586 1.216193,4.73281 2.356918,9.30207 3.402343,13.78711 1.045426,4.48503 1.996063,8.88475 2.826172,13.27734 0.830109,4.39259 1.541084,8.77892 2.111328,13.23437 0.570245,4.45546 0.999794,8.98066 1.265625,13.6543 -0.119859,3.7394 -0.478554,7.28653 -1.173828,10.61914 -0.347637,1.6663 -0.779515,3.27965 -1.308593,4.83594 -0.529079,1.55628 -1.155048,3.05537 -1.890626,4.49609 -0.735577,1.44072 -1.579739,2.82298 -2.546874,4.14258 -0.967136,1.31961 -2.057499,2.57659 -3.28125,3.76953 -1.223752,1.19295 -2.582465,2.32013 -4.087891,3.38086 -1.505426,1.06074 -3.156592,2.05554 -4.96875,2.97852 -3.421663,0.63511 -6.814278,1.21027 -10.228516,1.52734 -1.707119,0.15854 -3.419778,0.25172 -5.144531,0.25586 -1.724753,0.004 -3.461418,-0.0811 -5.216797,-0.28125 -1.755379,-0.20018 -3.529126,-0.51432 -5.328125,-0.96875 -1.798999,-0.45443 -3.622903,-1.04804 -5.478516,-1.80664 -1.855612,-0.7586 -3.742749,-1.68223 -5.667968,-2.79492 -1.925219,-1.1127 -3.888666,-2.41493 -5.896485,-3.93164 -0.888607,-0.39916 -1.881816,-0.98683 -2.96875,-1.7461 -1.086933,-0.75926 -2.267505,-1.69055 -3.535156,-2.77539 -2.535301,-2.16968 -5.415848,-4.95598 -8.5683592,-8.2207 -3.1525115,-3.26472 -6.5781858,-7.00837 -10.2070313,-11.0918 -3.6288455,-4.08342 -7.4595246,-8.50702 -11.4238285,-13.13281 -7.928607,-9.25157 -16.387318,-19.31123 -24.8125,-29.07422 -4.212591,-4.88149 -8.417548,-9.68837 -12.542968,-14.2832 -4.125421,-4.59484 -8.170986,-8.97793 -12.06836,-13.00977 -0.965477,-0.99878 -2.034225,-1.91528 -3.197265,-2.75 -1.163041,-0.83472 -2.421703,-1.58805 -3.769532,-2.25781 -1.347828,-0.66976 -2.784845,-1.25588 -4.304687,-1.75977 -1.519842,-0.50388 -3.1217,-0.92459 -4.800781,-1.26171 -1.679082,-0.33712 -3.43422,-0.59032 -5.259766,-0.75977 -1.825546,-0.16945 -3.722405,-0.25498 -5.681641,-0.25586 -3.918472,-0.002 -8.090211,0.33378 -12.466798,1.01172 -2.91203,0.5718 -5.95042,1.55163 -9.04883,2.81641 -3.09841,1.26477 -6.25663,2.81541 -9.41016,4.52734 -3.15353,1.71193 -6.30345,3.58476 -9.38086,5.49805 -2.66454,1.6566 -5.23627,3.33116 -7.75195,4.96679 a 133.22115,132.88643 0 0 0 -1.99023,22.00391 A 133.22115,132.88643 0 0 0 -6.0253906,338.01758 133.22115,132.88643 0 0 0 127.19531,205.13086 133.22115,132.88643 0 0 0 108.02344,136.71875 Z"
         id="path834" />
      <path
         style="fill:#299b45;fill-opacity:1;stroke:#ff6600;stroke-width:0.23703067;stroke-linecap:round;stroke-linejoin:round;stroke-miterlimit:4;stroke-dasharray:none"
         d="M -6.0253906,72.244141 C -64.455716,72.24503 -116.06614,110.22467 -133.31055,165.91211 c 2.0409,-2.35468 4.08977,-4.67861 6.18164,-6.63477 2.69661,-2.52166 5.4233,-4.72655 8.14453,-6.65234 2.72124,-1.92579 5.43705,-3.57191 8.11524,-4.97656 2.67819,-1.40465 5.31729,-2.56909 7.88476,-3.52735 2.56748,-0.95825 5.064038,-1.71028 7.45313,-2.29687 2.389092,-0.5866 4.671414,-1.0072 6.814453,-1.29688 2.143039,-0.28967 4.147246,-0.45008 5.976563,-0.51757 1.829316,-0.0675 3.483716,-0.0409 4.93164,0.0391 2.378375,0.19225 4.665613,0.47172 6.867188,0.83203 2.201575,0.36031 4.318308,0.80125 6.355468,1.31641 2.037161,0.51515 3.993776,1.10299 5.878907,1.75976 1.88513,0.65678 3.697873,1.3828 5.443359,2.16797 3.490972,1.57035 6.715954,3.38404 9.722656,5.38867 3.006703,2.00463 5.794502,4.20005 8.416016,6.53321 2.621514,2.33315 5.076705,4.80346 7.412109,7.35937 2.335405,2.55591 4.552797,5.19623 6.701172,7.86914 4.296752,5.34583 8.317822,10.82073 12.4609378,16 9.11566925,12.67565 17.4899218,25.60242 25.4707032,36.58008 1.995195,2.74441 3.964539,5.36562 5.916016,7.83203 1.951476,2.46641 3.884092,4.77683 5.802734,6.89648 1.918642,2.11966 3.824011,4.04976 5.720703,5.75391 1.896692,1.70415 3.786249,3.18245 5.671875,4.40234 1.749605,1.15295 3.571648,2.12919 5.414062,2.91602 1.842415,0.78683 3.703491,1.38468 5.527344,1.7832 1.823854,0.39853 3.610767,0.59791 5.304688,0.58594 1.693921,-0.012 3.29543,-0.23504 4.748047,-0.67969 0.947787,-0.48824 1.780175,-1.03511 2.511718,-1.63476 0.731544,-0.59966 1.363109,-1.25203 1.90625,-1.94922 0.543142,-0.69719 0.998277,-1.43984 1.38086,-2.2207 0.382583,-0.78087 0.691539,-1.60051 0.941406,-2.45118 0.499733,-1.70132 0.762515,-3.52845 0.898437,-5.42578 0.135923,-1.89732 0.145773,-3.86527 0.140626,-5.84765 -0.915223,-10.6061 -2.246026,-20.91488 -3.369141,-31.37305 -0.561558,-5.22909 -1.071519,-10.495 -1.451172,-15.85352 -0.379653,-5.35852 -0.994761,-10.82041 -0.671875,-16.41015 0.180221,-3.11995 1.104301,-5.81326 1.691406,-8.26172 0.587105,-2.44847 1.200593,-4.60931 1.845703,-6.53125 0.645111,-1.92195 1.322026,-3.60547 2.039063,-5.10352 0.717037,-1.49804 1.474459,-2.80955 2.277344,-3.98632 0.802884,-1.17678 1.652033,-2.21962 2.554687,-3.17774 0.902654,-0.95812 1.858655,-1.83173 2.875,-2.67383 2.03269,-1.68419 4.142459,-3.49223 6.876953,-5.07422 1.772323,-1.02534 3.750296,-1.39292 5.570313,-1.93945 1.820017,-0.54653 3.615046,-0.9997 5.414062,-1.38672 3.541686,-0.76191 7.110869,-1.2535 10.933589,-1.66797 C 80.793135,94.875049 38.902577,72.266118 -6.0253906,72.244141 Z"
         id="path825"
         inkscape:connector-curvature="0"
         sodipodi:nodetypes="ccccscccccscccscsscsscscsccccsccscsssscccscssccc" />
    </g>
  </g>
</svg>
