<?xml version="1.0" encoding="UTF-8" standalone="no"?>
<!-- Created with Inkscape (http://www.inkscape.org/) -->

<svg
   xmlns:dc="http://purl.org/dc/elements/1.1/"
   xmlns:cc="http://creativecommons.org/ns#"
   xmlns:rdf="http://www.w3.org/1999/02/22-rdf-syntax-ns#"
   xmlns:svg="http://www.w3.org/2000/svg"
   xmlns="http://www.w3.org/2000/svg"
   xmlns:sodipodi="http://sodipodi.sourceforge.net/DTD/sodipodi-0.dtd"
   xmlns:inkscape="http://www.inkscape.org/namespaces/inkscape"
   version="1.1"
   id="svg6967"
   xml:space="preserve"
   width="800.47601"
   height="798.42798"
   viewBox="0 0 800.47601 798.42798"
   sodipodi:docname="san__javier.svg"
   inkscape:version="0.92.4 (f8dce91, 2019-08-02)"><metadata
     id="metadata6973"><rdf:RDF><cc:Work
         rdf:about=""><dc:format>image/svg+xml</dc:format><dc:type
           rdf:resource="http://purl.org/dc/dcmitype/StillImage" /><dc:title></dc:title></cc:Work></rdf:RDF></metadata><defs
     id="defs6971"><clipPath
       clipPathUnits="userSpaceOnUse"
       id="clipPath6983"><path
         d="M 0,728.571 H 742.857 V 0 H 0 Z"
         id="path6981"
         inkscape:connector-curvature="0" /></clipPath></defs><sodipodi:namedview
     pagecolor="#ffffff"
     bordercolor="#666666"
     borderopacity="1"
     objecttolerance="10"
     gridtolerance="10"
     guidetolerance="10"
     inkscape:pageopacity="0"
     inkscape:pageshadow="2"
     inkscape:window-width="1853"
     inkscape:window-height="1025"
     id="namedview6969"
     showgrid="false"
     inkscape:zoom="0.24294132"
     inkscape:cx="507.58667"
     inkscape:cy="485.71399"
     inkscape:window-x="67"
     inkscape:window-y="27"
     inkscape:window-maximized="1"
     inkscape:current-layer="g6977" /><g
     id="g6975"
     inkscape:groupmode="layer"
     inkscape:label="san javier"
     transform="matrix(1.3333333,0,0,-1.3333333,0,798.428)"><g
       id="g6977"
       transform="translate(-12.348661,33.958818)"><g
         id="g7616"
         transform="translate(-92.614958,-98.789288)"><g
           id="g6985"
           transform="translate(244.2881,488.5693)"><path
             d="m 0,0 c 3.588,3.762 7.789,7.627 12.754,11.324 4.967,3.686 10.701,7.209 17.26,10.162 6.554,2.941 13.955,5.289 21.963,6.583 7.998,1.286 16.586,1.523 25.261,0.509 l 0.2,-0.022 c 0.017,0.004 0.621,-0.105 0.445,-0.068 l 0.344,-0.043 0.687,-0.083 0.172,-0.02 c 0.066,-0.008 0.092,-0.006 0.195,-0.027 l 0.526,-0.088 1.056,-0.192 0.526,-0.099 0.463,-0.094 0.925,-0.194 c 0.616,-0.124 1.221,-0.278 1.83,-0.422 2.434,-0.601 4.821,-1.323 7.141,-2.172 4.641,-1.702 9.031,-3.811 13.15,-6.202 4.133,-2.381 8,-5.045 11.694,-7.846 3.695,-2.807 7.166,-5.794 10.513,-8.884 6.663,-6.202 12.741,-12.858 18.44,-19.769 2.85,-3.458 5.596,-6.984 8.281,-10.552 2.674,-3.574 5.283,-7.197 7.836,-10.846 5.106,-7.301 10.008,-14.725 14.902,-22.098 4.901,-7.361 9.788,-14.685 14.891,-21.695 5.098,-7 10.406,-13.721 16.029,-19.652 2.823,-2.956 5.709,-5.711 8.643,-8.15 2.928,-2.444 5.912,-4.544 8.846,-6.174 1.466,-0.815 2.925,-1.493 4.345,-2.053 1.432,-0.557 2.825,-0.96 4.202,-1.252 0.683,-0.127 1.367,-0.256 2.042,-0.317 0.336,-0.047 0.672,-0.058 1.01,-0.09 -0.021,-0.003 0.223,-0.005 -0.011,-0.011 l 0.209,-0.005 0.425,-0.013 0.764,-0.019 0.543,-0.014 0.135,-0.004 0.158,0.002 0.316,0.002 c 0.418,-0.004 0.825,0.014 1.233,0.024 0.808,0.033 1.599,0.08 2.345,0.162 0.748,0.084 1.467,0.189 2.147,0.318 0.674,0.134 1.312,0.291 1.908,0.467 1.192,0.348 2.203,0.782 3.078,1.298 0.881,0.516 1.649,1.118 2.377,1.889 0.719,0.772 1.408,1.723 2.026,2.885 1.261,2.316 2.189,5.451 2.763,8.91 0.582,3.465 0.83,7.246 0.867,11.109 0.041,3.867 -0.115,7.833 -0.388,11.811 -0.27,3.983 -0.658,7.985 -1.092,11.978 -0.434,3.992 -0.924,7.977 -1.406,11.946 -0.483,3.97 -0.963,7.922 -1.408,11.855 -0.446,3.934 -0.856,7.846 -1.174,11.747 -0.325,3.898 -0.565,7.783 -0.633,11.663 -0.031,1.942 -0.031,3.88 0.023,5.821 l 0.024,0.726 0.015,0.431 0.014,0.339 c 0.022,0.446 0.039,0.896 0.065,1.342 0.029,0.494 0.056,0.984 0.087,1.477 0.034,0.499 0.063,1.001 0.11,1.475 0.15,1.919 0.394,3.827 0.672,5.712 0.302,1.889 0.662,3.756 1.099,5.598 0.453,1.839 0.967,3.654 1.573,5.429 0.615,1.772 1.312,3.504 2.087,5.184 1.573,3.353 3.469,6.493 5.678,9.271 2.19,2.795 4.67,5.217 7.244,7.285 1.295,1.029 2.621,1.965 3.948,2.825 1.343,0.847 2.683,1.624 4.025,2.325 5.389,2.786 10.68,4.453 15.555,5.614 4.187,0.975 8.076,1.57 11.656,1.983 C 274.883,87.973 221.32,119.53 160.387,119.53 81.002,119.53 14.139,65.973 -6.076,-6.976 -4.262,-4.713 -2.264,-2.381 0,0"
             style="fill:#00a650;fill-opacity:1;fill-rule:nonzero;stroke:none"
             id="path6987"
             inkscape:connector-curvature="0" /></g><g
           id="g6989"
           transform="translate(552.6885,522.6709)"><path
             d="m 0,0 c -3.793,-0.796 -7.936,-1.842 -12.252,-3.337 -4.299,-1.505 -8.789,-3.463 -12.988,-6.217 -4.196,-2.745 -8.041,-6.317 -10.901,-10.809 -1.445,-2.236 -2.625,-4.711 -3.564,-7.364 -0.465,-1.332 -0.863,-2.708 -1.207,-4.127 -0.332,-1.419 -0.609,-2.881 -0.83,-4.376 -0.209,-1.496 -0.36,-3.032 -0.465,-4.59 -0.082,-1.567 -0.137,-3.157 -0.113,-4.775 -0.008,-0.411 0.006,-0.794 0.021,-1.184 0.01,-0.397 0.024,-0.794 0.033,-1.196 0.024,-0.445 0.043,-0.894 0.067,-1.34 l 0.011,-0.337 c 0,-0.022 0.008,-0.196 0.008,-0.086 l 0.014,-0.158 0.043,-0.624 c 0.129,-1.66 0.305,-3.357 0.519,-5.076 0.864,-6.881 2.276,-14.125 3.901,-21.645 0.812,-3.76 1.676,-7.597 2.551,-11.513 0.865,-3.916 1.742,-7.913 2.589,-12.006 0.838,-4.094 1.657,-8.281 2.366,-12.596 0.709,-4.314 1.326,-8.757 1.709,-13.388 0.375,-4.631 0.539,-9.453 0.17,-14.576 -0.188,-2.562 -0.524,-5.2 -1.086,-7.922 -0.565,-2.717 -1.369,-5.526 -2.532,-8.362 -1.169,-2.829 -2.71,-5.699 -4.724,-8.378 -1.998,-2.684 -4.463,-5.159 -7.192,-7.2 -2.732,-2.051 -5.699,-3.665 -8.671,-4.867 -1.485,-0.603 -2.977,-1.113 -4.459,-1.544 -1.477,-0.423 -2.946,-0.77 -4.399,-1.057 -1.455,-0.287 -2.887,-0.498 -4.307,-0.674 -0.703,-0.076 -1.416,-0.16 -2.109,-0.212 l -0.525,-0.047 -0.266,-0.021 -0.283,-0.018 -1.135,-0.067 -0.914,-0.047 -0.418,-0.02 -0.211,-0.009 -0.431,-0.007 c -0.784,-0.003 -1.571,-0.017 -2.35,0.02 -1.568,0.037 -3.123,0.181 -4.66,0.363 -3.073,0.403 -6.067,1.063 -8.914,1.94 -2.848,0.878 -5.565,1.942 -8.145,3.142 -5.15,2.409 -9.779,5.295 -14.031,8.375 -4.252,3.086 -8.156,6.371 -11.838,9.741 -3.687,3.366 -7.182,6.802 -10.531,10.283 -1.674,1.743 -3.33,3.48 -4.949,5.231 -1.618,1.751 -3.204,3.513 -4.78,5.266 -6.289,7.029 -12.256,14.067 -18.031,21.024 -5.779,6.951 -11.355,13.817 -16.771,20.51 -2.68,3.318 -5.348,6.615 -7.997,9.89 -2.625,3.245 -5.222,6.427 -7.793,9.524 -5.134,6.201 -10.171,12.076 -15.181,17.359 -1.246,1.326 -2.502,2.6 -3.746,3.841 -1.24,1.247 -2.494,2.431 -3.733,3.575 -2.476,2.291 -4.961,4.355 -7.398,6.176 -2.449,1.797 -4.848,3.355 -7.199,4.588 -1.174,0.613 -2.325,1.173 -3.465,1.642 -0.278,0.112 -0.567,0.243 -0.85,0.341 -0.258,0.099 -0.519,0.198 -0.781,0.294 l -0.295,0.119 -0.144,0.064 c -0.01,0.009 -0.102,0.028 -0.147,0.042 l -0.168,0.045 -0.664,0.184 -0.334,0.089 c -0.289,0.063 0.205,-0.029 0.104,-0.007 l -0.135,0.035 c -5.774,1.551 -11.471,2.394 -17.03,2.526 -11.115,0.322 -21.689,-2.179 -30.88,-5.899 -4.608,-1.846 -8.866,-3.995 -12.75,-6.203 -3.887,-2.211 -7.399,-4.487 -10.508,-6.686 -4.426,-3.113 -8.057,-6.023 -10.926,-8.456 -1.139,-8.005 -1.738,-16.182 -1.738,-24.501 0,-95.392 77.334,-172.723 172.724,-172.723 95.391,0 172.723,77.331 172.723,172.723 0,31.926 -8.674,61.821 -23.773,87.479 C 0.619,0.122 0.32,0.065 0,0"
             style="fill:#8b5d3b;fill-opacity:1;fill-rule:nonzero;stroke:none"
             id="path6991"
             inkscape:connector-curvature="0" /></g><g
           id="g6993"
           transform="translate(164.2988,178.9062)"><path
             d="m 0,0 c -2.773,-0.332 -5.548,-0.787 -8.321,-1.366 -3.189,-0.705 -6.335,-1.615 -9.441,-2.734 -2.319,-0.787 -4.688,-1.8 -7.11,-3.043 -2.423,-1.242 -4.658,-2.711 -6.708,-4.409 -2.049,-1.698 -3.705,-3.654 -4.968,-5.869 -1.264,-2.215 -1.894,-4.73 -1.894,-7.546 0,-2.815 0.506,-5.444 1.521,-7.887 1.015,-2.443 2.618,-4.595 4.814,-6.459 2.111,-1.739 4.492,-3.011 7.141,-3.819 2.65,-0.807 5.32,-1.211 8.012,-1.211 4.016,0 7.866,0.911 11.552,2.733 4.18,2.276 7.235,5.381 9.16,9.315 1.925,3.934 2.888,8.198 2.888,12.794 0,7.286 -2.154,13.725 -6.459,19.314 C 0.146,-0.104 0.083,-0.042 0,0 m -4.099,4.781 c -2.732,2.692 -5.61,5.258 -8.632,7.701 -0.746,0.58 -1.491,1.181 -2.236,1.801 -3.105,2.485 -6.128,5.071 -9.067,7.764 -2.941,2.69 -5.507,5.692 -7.701,9.005 -3.644,5.548 -5.465,11.676 -5.465,18.383 0,3.933 0.765,7.586 2.298,10.961 1.531,3.375 3.995,6.159 7.39,8.353 2.153,1.325 4.461,2.298 6.925,2.919 2.463,0.621 4.938,0.932 7.421,0.932 4.016,0 7.825,-1.015 11.428,-3.043 4.098,-2.485 7.162,-5.786 9.191,-9.906 2.028,-4.121 3.125,-8.519 3.291,-13.197 v -0.186 c 0,-0.664 -0.227,-1.222 -0.682,-1.677 -0.457,-0.539 -1.056,-0.829 -1.801,-0.87 -0.746,0 -1.377,0.238 -1.895,0.715 -0.518,0.475 -0.798,1.086 -0.839,1.832 -0.083,2.939 -0.641,5.816 -1.676,8.632 -1.036,2.815 -2.588,5.279 -4.658,7.39 -1.242,1.242 -2.557,2.194 -3.944,2.857 -1.387,0.662 -2.949,0.994 -4.688,0.994 -1.409,0 -2.93,-0.217 -4.565,-0.652 -1.637,-0.435 -3.033,-1.067 -4.192,-1.894 -2.236,-1.74 -3.82,-3.851 -4.751,-6.335 -0.932,-2.485 -1.398,-5.093 -1.398,-7.825 0,-3.52 0.808,-6.831 2.422,-9.937 1.159,-2.235 2.609,-4.307 4.348,-6.21 1.739,-1.905 3.56,-3.685 5.465,-5.342 2.152,-1.862 4.326,-3.664 6.521,-5.402 2.443,-1.987 4.844,-4.017 7.204,-6.087 3.602,-3.146 6.831,-6.624 9.689,-10.434 h 2.235 c 4.099,0 8.859,-0.269 14.284,-0.806 6.375,-0.663 11.758,-1.408 16.148,-2.237 0.537,-0.124 0.951,-0.393 1.242,-0.807 0.206,-0.29 0.31,-0.601 0.31,-0.931 0,-0.166 -0.021,-0.332 -0.062,-0.497 -0.083,-0.539 -0.353,-0.953 -0.808,-1.242 -0.29,-0.208 -0.6,-0.311 -0.931,-0.311 -0.166,0 -0.332,0.021 -0.496,0.062 -5.093,0.952 -9.378,1.512 -12.857,1.678 -1.946,0.082 -3.954,0.124 -6.023,0.124 -1.533,0 -3.085,-0.022 -4.659,-0.063 -1.574,-0.042 -3.271,-0.083 -5.092,-0.124 3.27,-6.294 4.906,-13.084 4.906,-20.37 0,-7.536 -1.564,-13.581 -4.688,-18.135 -3.127,-4.553 -7.413,-7.856 -12.856,-9.905 -5.445,-2.05 -11.624,-3.074 -18.538,-3.074 -5.425,0 -10.362,0.931 -14.813,2.795 -4.451,1.862 -8.011,4.688 -10.681,8.476 -2.671,3.789 -4.006,8.58 -4.006,14.377 0,3.189 0.662,6.232 1.987,9.13 2.236,4.512 5.6,8.167 10.092,10.961 4.492,2.795 9.398,4.947 14.719,6.459 5.32,1.511 10.382,2.577 15.184,3.198"
             style="fill:#8b5d3b;fill-opacity:1;fill-rule:nonzero;stroke:none"
             id="path6995"
             inkscape:connector-curvature="0" /></g><g
           id="g6997"
           transform="translate(235.4707,186.2959)"><path
             d="m 0,0 c -2.526,1.283 -4.699,1.926 -6.521,1.926 -2.36,0 -4.626,-0.714 -6.8,-2.143 -2.174,-1.429 -3.944,-3.116 -5.31,-5.061 -1.118,-1.657 -2.029,-3.633 -2.733,-5.931 -0.704,-2.298 -1.056,-4.421 -1.056,-6.366 0,-1.863 0.165,-3.623 0.497,-5.279 0.331,-1.657 0.91,-3.313 1.739,-4.968 0.952,-2.112 2.463,-3.189 4.534,-3.23 2.649,0.124 4.937,1.469 6.862,4.037 1.926,2.567 3.529,5.547 4.813,8.943 1.284,3.394 2.298,6.397 3.043,9.006 C -0.394,-7.079 -0.083,-4.058 0,0 m 0.435,-17.638 c -0.497,-1.946 -1.202,-4.047 -2.112,-6.302 -0.911,-2.258 -2.122,-4.432 -3.633,-6.522 -1.511,-2.091 -3.458,-3.809 -5.837,-5.154 -2.382,-1.347 -5.332,-2.019 -8.851,-2.019 -2.07,0 -3.975,0.476 -5.713,1.429 -1.739,0.951 -3.229,2.276 -4.472,3.975 -1.574,2.193 -2.661,4.511 -3.26,6.955 -0.601,2.442 -0.901,5.009 -0.901,7.701 0,2.691 0.507,5.537 1.522,8.539 1.013,3.002 2.39,5.599 4.13,7.795 2.318,2.856 5.05,4.988 8.198,6.396 3.145,1.407 6.541,2.112 10.184,2.112 2.361,0 4.389,-0.228 6.087,-0.684 2.07,-0.662 4.244,-1.449 6.521,-2.359 1.034,0.289 2.05,0.434 3.043,0.434 1.2,0 2.401,-0.208 3.602,-0.621 0.786,-0.29 1.491,-0.756 2.112,-1.397 0.621,-0.643 0.931,-1.398 0.931,-2.267 -0.084,-1.905 -0.124,-3.851 -0.124,-5.838 V -7.39 c 0,-3.023 0.124,-6.046 0.372,-9.067 0.289,-3.189 0.829,-6.335 1.616,-9.44 0.372,-1.615 1.034,-3.105 1.987,-4.472 0.248,-0.372 0.579,-0.714 0.993,-1.025 0.414,-0.31 0.87,-0.465 1.366,-0.465 0.786,0 1.563,0.341 2.329,1.025 0.766,0.683 1.398,1.335 1.895,1.956 2.524,3.23 5.04,7.018 7.546,11.365 2.504,4.347 4.605,8.363 6.303,12.048 0.207,0.497 0.559,0.828 1.056,0.994 0.206,0.082 0.413,0.124 0.621,0.124 0.248,0 0.517,-0.062 0.807,-0.186 0.497,-0.248 0.828,-0.601 0.994,-1.056 0.124,-0.248 0.187,-0.497 0.187,-0.745 0,-0.249 -0.063,-0.497 -0.187,-0.745 l -1.49,-3.23 c -1.657,-3.768 -3.396,-7.412 -5.217,-10.93 -1.823,-3.52 -4.121,-7.039 -6.894,-10.558 -0.994,-1.284 -2.143,-2.567 -3.447,-3.85 -1.304,-1.285 -2.732,-2.372 -4.285,-3.261 -1.553,-0.891 -3.178,-1.335 -4.875,-1.335 -2.402,0 -4.379,0.786 -5.932,2.359 -1.551,1.573 -2.794,3.437 -3.725,5.59 -0.932,2.152 -1.626,4.243 -2.081,6.273 -0.621,2.773 -1.077,5.568 -1.366,8.383"
             style="fill:#8b5d3b;fill-opacity:1;fill-rule:nonzero;stroke:none"
             id="path6999"
             inkscape:connector-curvature="0" /></g><g
           id="g7001"
           transform="translate(282.9189,165.4912)"><path
             d="m 0,0 c 0.579,1.697 1.221,3.374 1.925,5.03 1.904,4.927 4.264,9.627 7.08,14.098 0.621,0.994 1.387,2.039 2.298,3.137 0.91,1.096 1.926,2.039 3.043,2.825 1.118,0.786 2.298,1.181 3.54,1.181 0.786,0 1.51,-0.167 2.174,-0.498 2.276,-1.201 3.705,-3.301 4.285,-6.303 0.579,-3.002 0.889,-6.594 0.931,-10.776 0,-2.773 -0.103,-5.527 -0.31,-8.259 -0.166,-3.271 -0.466,-7.226 -0.901,-11.862 -0.434,-4.637 -0.673,-8.157 -0.713,-10.558 0,-1.739 0.155,-3.644 0.465,-5.713 0.311,-2.071 0.796,-3.106 1.459,-3.106 2.112,0.042 6.065,7.484 11.863,22.326 5.796,14.844 8.901,22.72 9.315,23.631 0.248,0.497 0.621,0.828 1.118,0.994 0.165,0.082 0.351,0.124 0.559,0.124 0.289,0 0.579,-0.083 0.869,-0.248 0.497,-0.249 0.828,-0.6 0.994,-1.055 0.082,-0.208 0.124,-0.415 0.124,-0.621 0,-0.291 -0.083,-0.581 -0.248,-0.87 -0.415,-0.87 -3.323,-8.291 -8.725,-22.265 -5.404,-13.973 -9.649,-22.719 -12.732,-26.238 -3.085,-3.519 -6.077,-5.28 -8.975,-5.28 -0.869,0 -1.698,0.166 -2.484,0.497 -2.277,1.284 -3.757,3.415 -4.44,6.397 -0.683,2.981 -1.025,5.692 -1.025,8.136 -0.042,1.573 -0.062,3.126 -0.062,4.658 0,2.111 0.041,4.201 0.125,6.272 0.206,1.573 0.527,4.791 0.962,9.658 0.434,4.864 0.693,9.635 0.776,14.314 0,1.573 -0.042,3.126 -0.124,4.658 -0.042,0.497 -0.208,0.745 -0.497,0.745 -0.414,0 -0.787,-0.269 -1.117,-0.807 C 9.564,10.702 7.825,7.038 6.335,3.229 5.093,0.248 3.975,-2.795 2.98,-5.899 2.152,-8.426 1.469,-10.992 0.932,-13.601 c 0,-0.042 -0.022,-0.084 -0.063,-0.124 -0.124,-0.581 -0.403,-1.025 -0.838,-1.336 -0.434,-0.31 -0.922,-0.486 -1.46,-0.527 -2.07,0 -4.078,0.351 -6.024,1.056 -0.828,0.289 -1.614,0.723 -2.36,1.303 -0.745,0.581 -1.16,1.346 -1.242,2.298 -0.208,4.182 -0.58,8.343 -1.118,12.484 -0.29,2.36 -0.682,4.719 -1.18,7.08 -0.29,1.366 -0.663,2.711 -1.118,4.036 -0.29,1.035 -0.745,2.008 -1.366,2.919 -0.29,0.414 -0.434,0.87 -0.434,1.367 0,0.248 0.041,0.517 0.124,0.807 0.289,0.786 0.828,1.304 1.615,1.552 1.282,0.29 2.587,0.435 3.912,0.435 1.573,0 3.084,-0.352 4.534,-1.056 0.455,-0.248 0.91,-0.569 1.366,-0.963 0.455,-0.393 0.807,-0.817 1.056,-1.272 0.91,-2.071 1.593,-4.224 2.049,-6.459 C -1.077,7.391 -0.643,4.782 -0.311,2.174 -0.229,1.47 -0.124,0.745 0,0"
             style="fill:#8b5d3b;fill-opacity:1;fill-rule:nonzero;stroke:none"
             id="path7003"
             inkscape:connector-curvature="0" /></g><g
           id="g7005"
           transform="translate(404.085,173.2539)"><path
             d="m 0,0 c -8.736,-1.946 -16.955,-5.176 -24.656,-9.688 -3.313,-2.029 -6.345,-4.42 -9.098,-7.173 -2.754,-2.754 -4.969,-5.848 -6.645,-9.285 -1.677,-3.437 -2.515,-7.183 -2.515,-11.241 0,-2.732 0.537,-5.206 1.614,-7.421 1.076,-2.214 2.629,-3.984 4.658,-5.31 2.028,-1.324 4.472,-1.987 7.329,-1.987 1.324,0 2.649,0.104 3.974,0.31 2.691,0.456 5.195,1.408 7.515,2.857 4.553,3.023 8.073,7.39 10.557,13.104 2.485,5.714 4.264,11.8 5.341,18.259 C -0.85,-11.116 -0.208,-5.258 0,0 m 0.248,5.466 c 0.083,2.359 0.124,4.72 0.124,7.08 0,7.783 -0.29,15.557 -0.869,23.32 -0.58,7.763 -1.366,15.495 -2.36,23.196 -1.118,0 -2.215,-0.041 -3.291,-0.124 -2.196,-0.084 -4.576,-0.425 -7.143,-1.025 -2.567,-0.6 -4.575,-1.75 -6.023,-3.447 -1.119,-1.325 -1.677,-2.878 -1.677,-4.657 0,-2.237 0.424,-4.401 1.272,-6.491 0.849,-2.09 1.947,-4.067 3.292,-5.93 1.345,-1.864 2.764,-3.582 4.254,-5.156 0.497,-0.538 0.735,-1.159 0.714,-1.863 -0.02,-0.704 -0.279,-1.304 -0.776,-1.801 -0.538,-0.456 -1.16,-0.682 -1.863,-0.682 -0.746,0 -1.366,0.248 -1.863,0.745 -1.822,1.945 -3.509,4.026 -5.061,6.241 -1.553,2.215 -2.806,4.574 -3.758,7.08 -0.952,2.505 -1.428,5.123 -1.428,7.857 0,3.021 0.972,5.712 2.919,8.073 1.862,2.235 4.306,3.808 7.328,4.72 3.022,0.91 6.231,1.449 9.626,1.615 2.028,0.082 4.016,0.124 5.962,0.124 1.283,0 2.547,-0.022 3.788,-0.063 1.325,-0.041 2.547,-0.061 3.665,-0.061 0.661,0 1.241,-0.218 1.738,-0.653 0.497,-0.434 0.786,-0.984 0.87,-1.645 1.076,-8.157 1.935,-16.356 2.578,-24.594 0.641,-8.239 0.962,-16.499 0.962,-24.779 0,-1.574 -0.021,-3.168 -0.062,-4.782 3.975,0.497 8.362,0.786 13.166,0.869 3.602,0.083 7.059,0.124 10.371,0.124 h 4.534 c 0.537,0 0.993,-0.186 1.367,-0.559 0.372,-0.373 0.558,-0.807 0.558,-1.303 0,-0.54 -0.186,-0.995 -0.558,-1.368 C 42.23,5.155 41.774,4.969 41.237,4.969 36.062,4.969 31.569,4.761 27.761,4.348 23.95,3.934 19.956,3.416 15.774,2.795 14.904,2.671 13.993,2.547 13.042,2.423 12.834,-2.588 12.421,-7.576 11.8,-12.545 11.179,-17.307 10.226,-22.006 8.942,-26.643 7.783,-30.741 6.21,-34.654 4.223,-38.38 c -1.988,-3.726 -4.534,-7.058 -7.639,-9.999 -3.644,-3.229 -7.67,-5.527 -12.079,-6.893 -4.409,-1.367 -9.016,-2.05 -13.818,-2.05 -3.81,0 -7.133,0.891 -9.968,2.671 -2.837,1.78 -5.031,4.182 -6.583,7.204 -1.553,3.022 -2.329,6.376 -2.329,10.06 0,4.721 0.941,9.068 2.826,13.042 1.883,3.975 4.378,7.567 7.483,10.776 3.106,3.208 6.604,5.993 10.495,8.353 8.612,5.051 17.825,8.611 27.637,10.682"
             style="fill:#8b5d3b;fill-opacity:1;fill-rule:nonzero;stroke:none"
             id="path7007"
             inkscape:connector-curvature="0" /></g><g
           id="g7009"
           transform="translate(472.8965,186.2959)"><path
             d="m 0,0 c -2.526,1.283 -4.699,1.926 -6.521,1.926 -2.36,0 -4.626,-0.714 -6.8,-2.143 -2.174,-1.429 -3.944,-3.116 -5.31,-5.061 -1.118,-1.657 -2.029,-3.633 -2.733,-5.931 -0.704,-2.298 -1.056,-4.421 -1.056,-6.366 0,-1.863 0.165,-3.623 0.497,-5.279 0.331,-1.657 0.91,-3.313 1.739,-4.968 0.952,-2.112 2.463,-3.189 4.534,-3.23 2.649,0.124 4.937,1.469 6.862,4.037 1.926,2.567 3.529,5.547 4.813,8.943 1.284,3.394 2.298,6.397 3.043,9.006 C -0.394,-7.079 -0.083,-4.058 0,0 m 0.435,-17.638 c -0.497,-1.946 -1.202,-4.047 -2.112,-6.302 -0.911,-2.258 -2.122,-4.432 -3.633,-6.522 -1.511,-2.091 -3.458,-3.809 -5.837,-5.154 -2.382,-1.347 -5.332,-2.019 -8.851,-2.019 -2.07,0 -3.975,0.476 -5.713,1.429 -1.739,0.951 -3.229,2.276 -4.472,3.975 -1.574,2.193 -2.661,4.511 -3.26,6.955 -0.601,2.442 -0.901,5.009 -0.901,7.701 0,2.691 0.507,5.537 1.522,8.539 1.013,3.002 2.39,5.599 4.13,7.795 2.318,2.856 5.05,4.988 8.198,6.396 3.145,1.407 6.541,2.112 10.184,2.112 2.361,0 4.389,-0.228 6.087,-0.684 2.07,-0.662 4.244,-1.449 6.521,-2.359 1.034,0.289 2.05,0.434 3.043,0.434 1.2,0 2.401,-0.208 3.602,-0.621 0.786,-0.29 1.491,-0.756 2.112,-1.397 0.621,-0.643 0.931,-1.398 0.931,-2.267 -0.084,-1.905 -0.124,-3.851 -0.124,-5.838 V -7.39 c 0,-3.023 0.124,-6.046 0.372,-9.067 0.289,-3.189 0.829,-6.335 1.616,-9.44 0.372,-1.615 1.034,-3.105 1.987,-4.472 0.248,-0.372 0.579,-0.714 0.993,-1.025 0.414,-0.31 0.87,-0.465 1.366,-0.465 0.786,0 1.563,0.341 2.329,1.025 0.766,0.683 1.398,1.335 1.895,1.956 2.524,3.23 5.04,7.018 7.546,11.365 2.504,4.347 4.605,8.363 6.303,12.048 0.207,0.497 0.559,0.828 1.056,0.994 0.206,0.082 0.413,0.124 0.621,0.124 0.248,0 0.517,-0.062 0.807,-0.186 0.497,-0.248 0.828,-0.601 0.994,-1.056 0.124,-0.248 0.187,-0.497 0.187,-0.745 0,-0.249 -0.063,-0.497 -0.187,-0.745 l -1.49,-3.23 c -1.657,-3.768 -3.396,-7.412 -5.217,-10.93 -1.823,-3.52 -4.121,-7.039 -6.894,-10.558 -0.994,-1.284 -2.143,-2.567 -3.447,-3.85 -1.304,-1.285 -2.732,-2.372 -4.285,-3.261 -1.553,-0.891 -3.178,-1.335 -4.875,-1.335 -2.402,0 -4.379,0.786 -5.932,2.359 -1.551,1.573 -2.794,3.437 -3.725,5.59 -0.932,2.152 -1.626,4.243 -2.081,6.273 -0.621,2.773 -1.077,5.568 -1.366,8.383"
             style="fill:#8b5d3b;fill-opacity:1;fill-rule:nonzero;stroke:none"
             id="path7011"
             inkscape:connector-curvature="0" /></g><g
           id="g7013"
           transform="translate(537.6094,177.167)"><path
             d="m 0,0 c 0.331,0.828 0.642,1.655 0.932,2.484 0.538,1.574 1.004,3.219 1.397,4.938 0.394,1.717 0.59,3.425 0.59,5.123 0,0.994 -0.166,2.174 -0.497,3.54 -0.331,1.366 -0.88,2.577 -1.646,3.633 -0.766,1.055 -1.791,1.584 -3.074,1.584 -0.496,0 -0.973,-0.104 -1.428,-0.311 C -5.134,20.287 -6.2,19.004 -6.925,17.141 -7.649,15.277 -8.011,13.621 -8.011,12.173 -8.011,6.375 -5.341,2.318 0,0 m 4.596,-1.366 c 1.821,-0.332 3.684,-0.497 5.59,-0.497 2.442,0 4.906,0.289 7.39,0.869 4.347,1.076 8.218,3.022 11.613,5.838 0.373,0.289 0.766,0.435 1.18,0.435 h 0.187 c 0.497,-0.042 0.931,-0.27 1.304,-0.683 0.289,-0.373 0.435,-0.767 0.435,-1.18 V 3.229 C 32.253,2.732 32.024,2.298 31.611,1.925 c -3.643,-3.023 -8.177,-5.3 -13.6,-6.831 -3.851,-1.077 -7.577,-1.615 -11.179,-1.615 -1.45,0 -2.878,0.083 -4.285,0.249 -0.332,-0.706 -0.663,-1.429 -0.994,-2.174 -2.568,-5.341 -5.589,-10.434 -9.068,-15.278 -1.242,-1.781 -2.608,-3.458 -4.098,-5.031 -0.58,-0.58 -1.242,-1.139 -1.988,-1.677 -0.745,-0.538 -1.552,-0.806 -2.421,-0.806 -1.367,0 -2.599,0.537 -3.696,1.614 -1.097,1.076 -2.04,2.318 -2.826,3.727 -0.787,1.407 -1.428,2.69 -1.925,3.85 -2.36,5.672 -4.223,11.53 -5.59,17.575 -1.117,4.637 -2.008,9.316 -2.67,14.036 -0.29,1.739 -0.497,3.478 -0.621,5.217 -0.124,1.158 -0.186,2.318 -0.186,3.478 0,0.703 0.02,1.407 0.062,2.111 0.04,0.621 0.289,1.139 0.745,1.553 0.456,0.413 0.994,0.621 1.615,0.621 h 1.49 c 1.904,-0.166 3.768,-0.539 5.59,-1.118 0.869,-0.29 1.708,-0.704 2.515,-1.242 0.807,-0.538 1.251,-1.326 1.335,-2.36 0.124,-3.147 0.455,-6.294 0.994,-9.44 0.621,-3.975 1.407,-7.887 2.36,-11.738 0.952,-3.974 2.07,-7.887 3.353,-11.738 0.663,-1.904 1.408,-3.788 2.237,-5.651 0.124,0.124 0.226,0.268 0.31,0.434 3.105,4.431 5.837,9.088 8.198,13.974 0.165,0.373 0.351,0.766 0.558,1.181 -4.057,1.324 -7.234,3.456 -9.532,6.396 -2.298,2.94 -3.447,6.583 -3.447,10.931 0,2.111 0.455,4.295 1.366,6.552 0.91,2.255 2.225,4.161 3.943,5.713 1.718,1.552 3.779,2.329 6.18,2.329 2.484,0 4.574,-0.725 6.272,-2.173 1.698,-1.45 2.971,-3.272 3.82,-5.466 C 7.276,16.934 7.701,14.739 7.701,12.545 7.701,10.641 7.493,8.726 7.08,6.801 6.666,4.875 6.148,3.001 5.527,1.18 5.237,0.311 4.927,-0.539 4.596,-1.366"
             style="fill:#8b5d3b;fill-opacity:1;fill-rule:nonzero;stroke:none"
             id="path7015"
             inkscape:connector-curvature="0" /></g><g
           id="g7017"
           transform="translate(577.4805,206.1699)"><path
             d="m 0,0 c 0,-1.035 -0.114,-2.309 -0.342,-3.819 -0.227,-1.512 -0.673,-2.858 -1.335,-4.037 -0.663,-1.18 -1.594,-1.77 -2.795,-1.77 -1.077,0 -2.39,0.071 -3.943,0.217 -1.553,0.144 -2.94,0.517 -4.161,1.118 -1.222,0.6 -1.832,1.604 -1.832,3.012 0,1.076 0.134,2.329 0.403,3.758 0.269,1.427 0.776,2.659 1.522,3.695 0.745,1.034 1.801,1.553 3.168,1.553 0.951,0 2.163,-0.063 3.632,-0.187 C -4.214,3.416 -2.898,3.084 -1.739,2.546 -0.58,2.008 0,1.158 0,0 m 23.724,-26.768 c -1.575,-5.878 -3.291,-11.727 -5.155,-17.544 -1.863,-5.817 -4.12,-11.479 -6.769,-16.985 -1.739,-3.81 -3.934,-7.349 -6.583,-10.62 -0.663,-0.828 -1.408,-1.573 -2.237,-2.236 -1.49,-1.325 -3.209,-1.988 -5.154,-1.988 h -0.373 c -2.483,0.373 -4.533,1.761 -6.147,4.162 -1.616,2.402 -2.879,5.092 -3.789,8.074 -0.912,2.98 -1.553,5.547 -1.925,7.7 -1.077,5.879 -1.677,11.82 -1.801,17.824 -0.042,1.531 -0.062,3.043 -0.062,4.534 0,5.175 0.268,10.329 0.807,15.464 0.082,0.621 0.351,1.127 0.807,1.522 0.456,0.392 0.972,0.59 1.553,0.59 2.028,0 4.057,-0.374 6.086,-1.119 0.497,-0.248 0.972,-0.517 1.428,-0.807 1.201,-0.745 1.802,-1.801 1.802,-3.167 -0.415,-4.058 -0.621,-8.115 -0.621,-12.172 0,-0.994 0.02,-2.009 0.061,-3.044 0.083,-5.258 0.497,-10.454 1.243,-15.588 0.165,-1.077 0.373,-2.133 0.621,-3.167 0.331,-1.739 0.703,-3.458 1.118,-5.155 0.248,-0.993 0.516,-1.967 0.807,-2.919 0.289,-0.869 0.6,-1.718 0.931,-2.546 0.249,-0.621 0.56,-1.18 0.932,-1.677 0.041,-0.124 0.125,-0.239 0.249,-0.342 0.124,-0.103 0.248,-0.155 0.372,-0.155 0.041,0 0.094,0.01 0.155,0.031 0.063,0.021 0.114,0.052 0.155,0.093 0.041,0.041 0.083,0.083 0.124,0.125 0.29,0.289 0.56,0.6 0.808,0.931 0.704,0.952 1.325,1.967 1.863,3.044 0.91,1.531 1.76,3.104 2.546,4.719 5.134,10.723 9.295,21.861 12.484,33.413 0.165,0.537 0.455,0.931 0.869,1.179 0.29,0.165 0.621,0.249 0.994,0.249 0.165,0 0.331,-0.021 0.497,-0.062 0.496,-0.166 0.869,-0.477 1.117,-0.932 0.165,-0.29 0.249,-0.6 0.249,-0.932 0,-0.166 -0.021,-0.332 -0.062,-0.497"
             style="fill:#8b5d3b;fill-opacity:1;fill-rule:nonzero;stroke:none"
             id="path7019"
             inkscape:connector-curvature="0" /></g><g
           id="g7021"
           transform="translate(605.1162,172.1982)"><path
             d="m 0,0 c 0.497,-0.041 0.994,-0.062 1.49,-0.062 0.662,0 1.346,0.041 2.05,0.124 1.2,0.166 2.276,0.559 3.23,1.18 1.449,1.118 2.38,2.66 2.794,4.627 0.414,1.966 0.622,3.777 0.622,5.435 0,1.614 -0.156,3.311 -0.466,5.092 C 9.409,18.176 8.819,19.79 7.949,21.24 7.742,21.612 7.463,21.933 7.111,22.203 6.759,22.472 6.355,22.606 5.9,22.606 5.527,22.606 5.186,22.492 4.875,22.265 4.564,22.037 4.306,21.757 4.099,21.427 2.897,19.77 2.028,17.948 1.49,15.961 0.413,11.986 -0.124,7.95 -0.124,3.851 c 0,-0.87 0.02,-1.76 0.062,-2.67 C -0.062,0.808 -0.042,0.414 0,0 m 0.435,-4.781 c 0.497,-4.1 1.407,-8.074 2.733,-11.925 0.413,-1.283 0.91,-2.525 1.49,-3.726 0.331,-0.663 0.755,-1.273 1.274,-1.832 0.516,-0.559 1.169,-0.839 1.956,-0.839 0.786,0 1.542,0.228 2.266,0.684 0.724,0.455 1.376,0.972 1.956,1.552 3.892,3.85 7.639,8.311 11.242,13.384 3.601,5.071 6.956,10.008 10.06,14.812 0.289,0.413 0.56,0.848 0.808,1.304 0.331,0.413 0.745,0.683 1.242,0.807 l 0.372,0.062 c 0.373,0 0.725,-0.104 1.057,-0.311 C 37.346,8.86 37.614,8.446 37.697,7.95 37.738,7.784 37.76,7.64 37.76,7.515 37.76,7.184 37.656,6.853 37.449,6.521 35.834,4.037 34.24,1.531 32.667,-0.993 c -2.525,-4.183 -5.176,-8.26 -7.949,-12.235 -2.775,-3.974 -5.86,-7.639 -9.254,-10.993 -1.656,-1.698 -3.57,-3.259 -5.744,-4.688 -2.174,-1.429 -4.462,-2.143 -6.863,-2.143 -1.781,0 -3.354,0.518 -4.72,1.553 -1.366,1.034 -2.536,2.287 -3.509,3.757 -0.973,1.47 -1.77,2.95 -2.391,4.44 -2.567,6.127 -4.079,12.545 -4.534,19.253 -0.083,0.993 -0.145,2.008 -0.185,3.043 -0.042,0.662 -0.063,1.345 -0.063,2.05 0,2.359 0.165,4.926 0.497,7.7 0.372,3.561 1.242,6.914 2.609,10.062 1.366,3.145 3.435,5.527 6.21,7.141 1.697,0.869 3.498,1.305 5.403,1.305 2.566,0 4.906,-0.767 7.017,-2.298 2.237,-1.863 3.758,-4.255 4.565,-7.174 0.807,-2.919 1.212,-5.744 1.212,-8.476 0,-2.527 -0.364,-5.083 -1.087,-7.67 C 13.155,1.046 11.696,-1.056 9.502,-2.67 7.143,-4.12 4.596,-4.844 1.863,-4.844 c -0.456,0 -0.931,0.021 -1.428,0.063"
             style="fill:#8b5d3b;fill-opacity:1;fill-rule:nonzero;stroke:none"
             id="path7023"
             inkscape:connector-curvature="0" /></g><g
           id="g7025"
           transform="translate(655.7939,176.7939)"><path
             d="m 0,0 c 1.945,-0.372 3.871,-0.559 5.775,-0.559 0.746,0 1.367,-0.31 1.864,-0.931 0.373,-0.456 0.559,-0.953 0.559,-1.49 0,-0.166 -0.021,-0.333 -0.062,-0.498 -1.574,-7.163 -2.733,-14.387 -3.478,-21.674 -0.332,-3.065 -0.497,-6.108 -0.497,-9.129 0,-0.953 0.021,-1.885 0.063,-2.795 0.082,-1.449 0.206,-2.877 0.372,-4.285 0.124,-0.869 0.268,-1.74 0.434,-2.609 0.124,-0.745 0.311,-1.49 0.56,-2.235 0.082,-0.165 0.185,-0.404 0.31,-0.715 0.124,-0.31 0.28,-0.579 0.466,-0.807 0.186,-0.227 0.404,-0.341 0.652,-0.341 0.331,0 0.683,0.227 1.055,0.682 0.373,0.456 0.684,0.87 0.932,1.242 l 0.186,0.373 c 0.663,0.87 1.284,1.76 1.864,2.67 3.063,4.886 6.064,10.745 9.005,17.577 2.939,6.831 5.381,13.042 7.328,18.63 l 1.987,5.59 0.497,1.491 c 0.083,0.207 0.145,0.393 0.187,0.559 0.497,1.448 1.013,2.877 1.552,4.285 0.207,0.496 0.537,0.848 0.993,1.056 0.25,0.124 0.518,0.185 0.808,0.185 0.207,0 0.435,-0.041 0.684,-0.124 0.496,-0.207 0.847,-0.538 1.055,-0.993 0.124,-0.208 0.187,-0.434 0.187,-0.683 0,-0.248 -0.063,-0.497 -0.187,-0.745 -0.497,-1.409 -0.994,-2.795 -1.49,-4.162 -0.042,-0.207 -0.104,-0.414 -0.186,-0.621 l -0.497,-1.49 -1.988,-5.59 -2.111,-6.086 c -1.739,-5.299 -3.675,-10.589 -5.807,-15.867 -2.134,-5.279 -4.793,-10.465 -7.98,-15.557 -0.829,-1.367 -1.843,-2.795 -3.044,-4.286 -1.201,-1.49 -2.546,-2.773 -4.036,-3.85 -1.491,-1.076 -3.085,-1.614 -4.783,-1.614 -1.739,0 -3.375,0.456 -4.906,1.366 -1.946,1.283 -3.395,3.064 -4.347,5.341 -0.953,2.277 -1.563,4.73 -1.832,7.359 -0.27,2.629 -0.404,4.977 -0.404,7.049 0,3.187 0.165,6.375 0.497,9.564 0.745,6.996 1.842,13.932 3.291,20.805 -1.946,0.497 -3.83,1.138 -5.651,1.925 -2.691,1.076 -5.072,2.587 -7.142,4.534 -2.898,2.69 -4.347,5.899 -4.347,9.626 0,4.348 1.531,9.729 4.595,16.147 0.455,0.993 1.201,1.491 2.236,1.491 1.822,0 3.665,-0.29 5.527,-0.87 0.746,-0.208 1.449,-0.497 2.112,-0.87 0.621,-0.372 1.077,-0.869 1.367,-1.49 -3.893,-6.21 -5.962,-11.552 -6.211,-16.022 C -11.986,5.631 -7.991,2.112 0,0"
             style="fill:#8b5d3b;fill-opacity:1;fill-rule:nonzero;stroke:none"
             id="path7027"
             inkscape:connector-curvature="0" /></g></g></g></g></svg>